<svg xmlns="http://www.w3.org/2000/svg" viewBox="0 0 1500 1500" width="100" height="100">
  <defs>
    <clipPath id="rounded">
      <rect x="0" y="0" width="1500" height="1500" rx="260" ry="260"/>
    </clipPath>
  </defs>
  <g clip-path="url(#rounded)">
    <rect x="0" y="0" width="1500" height="1500" fill="#1b1b1b"/>
    <g transform="translate(243, 0)">
      <g fill="#eeedea">
        <!-- L glyph: original transform translate(8.303, 1034.71) -->
        <g transform="translate(8.303, 1112.71)">
          <path d="M 91.71875 -655.4375 C 97.21875 -678.113281 106.835938 -695.289062 120.578125 -706.96875 C 134.316406 -718.644531 148.742188 -724.484375 163.859375 -724.484375 C 178.285156 -724.484375 192.195312 -719.328125 205.59375 -709.015625 C 218.988281 -698.710938 228.78125 -682.570312 234.96875 -660.59375 C 234.96875 -609.0625 234.96875 -560.96875 234.96875 -516.3125 C 234.96875 -471.65625 234.796875 -427.679688 234.453125 -384.390625 C 234.109375 -341.109375 233.59375 -295.421875 232.90625 -247.328125 C 232.90625 -240.460938 234.109375 -231.53125 236.515625 -220.53125 C 238.921875 -209.539062 245.101562 -199.921875 255.0625 -191.671875 C 265.019531 -183.429688 280.648438 -179.3125 301.953125 -179.3125 C 329.429688 -179.3125 356.910156 -179.140625 384.390625 -178.796875 C 411.878906 -178.453125 439.363281 -178.28125 466.84375 -178.28125 C 488.832031 -172.101562 504.976562 -162.3125 515.28125 -148.90625 C 525.582031 -135.507812 530.734375 -121.597656 530.734375 -107.171875 C 530.734375 -92.054688 524.894531 -77.628906 513.21875 -63.890625 C 501.539062 -50.148438 484.363281 -40.535156 461.6875 -35.046875 C 448.632812 -35.046875 435.582031 -34.875 422.53125 -34.53125 C 409.476562 -34.1875 396.425781 -34.015625 383.375 -34.015625 C 338.03125 -34.015625 292.679688 -35.039062 247.328125 -37.09375 C 219.160156 -38.46875 192.363281 -41.046875 166.9375 -44.828125 C 141.519531 -48.609375 121.082031 -56.851562 105.625 -69.5625 C 90.164062 -82.269531 82.4375 -101.679688 82.4375 -127.796875 C 82.4375 -140.847656 84.5 -154.929688 88.625 -170.046875 C 88.625 -229.816406 88.796875 -285.289062 89.140625 -336.46875 C 89.484375 -387.65625 90 -438.671875 90.6875 -489.515625 C 91.375 -540.359375 91.71875 -595.664062 91.71875 -655.4375 Z"/>
        </g>
        <!-- y glyph: original transform translate(460+4.246, 767.818) -->
        <g transform="translate(464.246, 767.818)">
          <path d="M 252.734375 -108.53125 C 236.710938 -101.8125 225.472656 -92.507812 219.015625 -80.625 C 212.554688 -68.738281 204.929688 -57.628906 196.140625 -47.296875 C 185.285156 -34.890625 174.171875 -23.128906 162.796875 -12.015625 C 151.429688 -0.898438 136.1875 4.65625 117.0625 4.65625 C 88.632812 4.65625 65.894531 -2.835938 48.84375 -17.828125 C 31.789062 -32.816406 23.265625 -54.007812 23.265625 -81.40625 C 23.265625 -109.832031 25.203125 -138.773438 29.078125 -168.234375 C 32.953125 -197.691406 36.4375 -226.894531 39.53125 -255.84375 C 41.601562 -272.375 47.9375 -285.675781 58.53125 -295.75 C 69.125 -305.832031 81.398438 -310.875 95.359375 -310.875 C 111.898438 -310.875 125.851562 -304.285156 137.21875 -291.109375 C 148.59375 -277.929688 154.28125 -262.296875 154.28125 -244.203125 C 154.28125 -238.523438 154.019531 -232.453125 153.5 -225.984375 C 152.988281 -219.523438 152.472656 -212.421875 151.953125 -204.671875 C 171.078125 -220.691406 188.390625 -236.195312 203.890625 -251.1875 C 219.398438 -266.175781 233.097656 -282.457031 244.984375 -300.03125 C 258.421875 -320.1875 274.441406 -330.265625 293.046875 -330.265625 C 303.898438 -330.265625 315.140625 -326 326.765625 -317.46875 C 338.398438 -308.9375 348.476562 -298.082031 357 -284.90625 C 365.53125 -271.726562 370.054688 -257.90625 370.578125 -243.4375 C 376.773438 -199.5 379.875 -155.304688 379.875 -110.859375 C 379.875 -68.484375 376.773438 -26.363281 370.578125 15.5 C 364.378906 57.363281 354.554688 98.972656 341.109375 140.328125 C 337.492188 155.316406 334.132812 170.429688 331.03125 185.671875 C 327.9375 200.921875 326.390625 216.816406 326.390625 233.359375 C 326.390625 250.929688 319.28125 264.882812 305.0625 275.21875 C 290.851562 285.550781 274.703125 290.71875 256.609375 290.71875 C 247.828125 290.71875 238.785156 289.425781 229.484375 286.84375 C 220.179688 284.257812 212.296875 279.863281 205.828125 273.65625 C 199.367188 267.457031 196.140625 259.453125 196.140625 249.640625 C 196.140625 244.984375 196.65625 240.328125 197.6875 235.671875 C 198.726562 231.023438 199.765625 226.632812 200.796875 222.5 C 208.546875 190.96875 216.425781 159.050781 224.4375 126.75 C 232.445312 94.445312 239.8125 62.535156 246.53125 31.015625 C 249.632812 17.054688 252.21875 2.710938 254.28125 -12.015625 C 256.351562 -26.742188 257.390625 -42.117188 257.390625 -58.140625 C 257.390625 -74.160156 255.835938 -90.957031 252.734375 -108.53125 Z"/>
        </g>
      </g>
    </g>
  </g>
</svg>
